<svg width="40" height="40" viewBox="0 0 40 40" fill="none" xmlns="http://www.w3.org/2000/svg">
<g clip-path="url(#clip0_169_65)">
<rect width="40" height="40" rx="9.6" fill="#101010"/>
<path d="M23.6865 26.575C21.2308 25.1013 18.6581 24.1346 16.1236 23.7474C17.0728 21.3095 17.5212 18.5385 17.4535 15.6121C19.9539 17.134 22.5779 18.1311 25.1638 18.528L35.5288 12.5438C34.3089 13.1856 33.019 13.6227 31.682 13.8696C30.4184 14.1018 29.114 14.1632 27.7933 14.0629C27.6103 14.0506 27.4289 14.0327 27.2465 14.0131C25.7006 13.8439 24.135 13.457 22.5836 12.8653C20.5304 12.0846 18.509 10.95 16.5951 9.49658C15.6803 8.80108 14.7872 8.03057 13.9329 7.1937C12.1191 5.42112 10.4596 3.33974 9.03916 0.983818L8.45616 0.0157742L9.00301 1.00469C10.3303 3.41209 11.3058 5.89068 11.934 8.34776C12.2308 9.5088 12.4524 10.6647 12.5973 11.8047C12.8991 14.1889 12.8701 16.5095 12.5215 18.677C12.259 20.3136 11.8105 21.8657 11.184 23.2891C11.1098 23.4569 11.0327 23.6239 10.9537 23.7875C10.3803 24.9814 9.67489 26.0803 8.84199 27.0585C7.96148 28.092 6.9362 28.9916 5.77041 29.7271C6.99029 29.0853 8.28019 28.6482 9.61726 28.4013C10.8799 28.1674 12.1842 28.106 13.5059 28.208C13.6889 28.2204 13.8703 28.2382 14.0527 28.2578C15.5987 28.427 17.1671 28.8146 18.7156 29.4056C20.7678 30.1846 22.792 31.3199 24.7051 32.7761C25.6199 33.4716 26.513 34.2421 27.3691 35.0779C28.8569 36.5321 30.2407 38.1944 31.4734 40.0457L23.6937 26.5708L23.6865 26.575Z" fill="white"/>
</g>
<defs>
<clipPath id="clip0_169_65">
<rect width="40" height="40" rx="9.6" fill="white"/>
</clipPath>
</defs>
</svg>
