<svg width="32" height="32" viewBox="0 0 32 32" fill="none" xmlns="http://www.w3.org/2000/svg">
<rect width="32" height="32" rx="10" fill="url(#paint0_linear_119_67)"/>
<path d="M24.0528 12.6094C23.6146 11.5635 22.9771 10.6129 22.1758 9.81056C21.377 9.00679 20.428 8.36774 19.3829 7.92971C18.3122 7.47879 17.1618 7.24765 16.0001 7.25002H15.961C14.7793 7.25588 13.6368 7.49025 12.5606 7.95119C11.5244 8.39372 10.5844 9.0339 9.79302 9.83596C8.99953 10.6365 8.36933 11.5838 7.93755 12.625C7.48934 13.7078 7.26223 14.8692 7.26958 16.041C7.27544 17.3965 7.59966 18.7422 8.20513 19.9453V22.9141C8.20513 23.4102 8.60747 23.8125 9.10161 23.8125H12.0665C13.2752 24.4224 14.6091 24.7434 15.9629 24.75H16.004C17.1719 24.75 18.3028 24.5235 19.3692 24.0801C20.4091 23.6473 21.3545 23.0157 22.1524 22.2207C22.9571 21.4219 23.5899 20.4883 24.0333 19.4473C24.4922 18.3692 24.7266 17.2227 24.7325 16.0391C24.7364 14.8496 24.5059 13.6953 24.0528 12.6094ZM12.1016 16.9375C11.586 16.9375 11.1661 16.5176 11.1661 16C11.1661 15.4824 11.586 15.0625 12.1016 15.0625C12.6172 15.0625 13.0372 15.4824 13.0372 16C13.0372 16.5176 12.6192 16.9375 12.1016 16.9375ZM16.0001 16.9375C15.4844 16.9375 15.0645 16.5176 15.0645 16C15.0645 15.4824 15.4844 15.0625 16.0001 15.0625C16.5157 15.0625 16.9356 15.4824 16.9356 16C16.9356 16.5176 16.5157 16.9375 16.0001 16.9375ZM19.8985 16.9375C19.3829 16.9375 18.9629 16.5176 18.9629 16C18.9629 15.4824 19.3829 15.0625 19.8985 15.0625C20.4141 15.0625 20.834 15.4824 20.834 16C20.834 16.5176 20.4141 16.9375 19.8985 16.9375Z" fill="white"/>
<defs>
<linearGradient id="paint0_linear_119_67" x1="16" y1="0" x2="16" y2="32" gradientUnits="userSpaceOnUse">
<stop stop-color="#37BBFE"/>
<stop offset="1" stop-color="#007DBB"/>
</linearGradient>
</defs>
</svg>
